M48
; DRILL file {KiCad 9.0.6} date 2026-02-15T17:48:05-0700
; FORMAT={-:-/ absolute / metric / decimal}
; #@! TF.CreationDate,2026-02-15T17:48:05-07:00
; #@! TF.GenerationSoftware,Kicad,Pcbnew,9.0.6
; #@! TF.FileFunction,Plated,1,2,PTH
FMAT,2
METRIC
; #@! TA.AperFunction,Plated,PTH,ViaDrill
T1C0.300
; #@! TA.AperFunction,Plated,PTH,ComponentDrill
T2C1.000
; #@! TA.AperFunction,Plated,PTH,ComponentDrill
T3C2.000
%
G90
G05
T1
X107.575Y-119.75
X114.348Y-106.673
X116.325Y-126.75
X118.025Y-125.9
X119.25Y-120.022
X119.3Y-123.675
X120.55Y-123.55
X122.325Y-109.844
X122.325Y-115.42
X122.35Y-104.319
X125.525Y-102.725
X125.8Y-116.575
X125.825Y-105.525
X125.825Y-111.05
X127.775Y-120.85
X128.95Y-102.85
X142.4Y-122.2
X143.85Y-120.825
X144.85Y-120.194
X147.125Y-112.906
X147.175Y-107.456
X147.65Y-126.725
X149.7Y-113.731
X149.75Y-108.281
X149.85Y-122.475
X161.675Y-113.35
X162.545Y-121.845
X162.9Y-119.025
X169.582Y-110.882
X171.125Y-117.781
X171.175Y-123.306
X171.425Y-102.675
X171.475Y-97.225
X171.625Y-128.425
X173.7Y-118.606
X173.75Y-124.131
X174.0Y-103.5
X174.05Y-98.05
X174.25Y-126.95
X175.975Y-125.949
X176.475Y-93.475
X178.8Y-108.55
X179.75Y-124.65
X185.425Y-100.975
X193.3Y-129.0
X193.525Y-107.475
X197.1Y-123.281
X197.15Y-117.831
X197.225Y-102.625
X197.275Y-97.175
X199.675Y-110.175
X199.675Y-124.106
X199.725Y-118.656
X199.8Y-103.45
X199.85Y-98.0
T2
X102.51Y-93.925
X102.51Y-96.465
X102.51Y-99.005
X102.51Y-101.545
X102.51Y-104.085
X102.51Y-106.625
X102.51Y-109.165
X102.51Y-111.705
X102.51Y-114.245
X105.05Y-114.245
X107.59Y-114.245
X110.13Y-114.245
X112.67Y-114.245
X115.21Y-114.245
X117.75Y-93.925
X117.75Y-96.465
X117.75Y-99.005
X117.75Y-101.545
X117.75Y-104.085
X117.75Y-106.625
X117.75Y-109.165
X117.75Y-111.705
X117.75Y-114.245
X127.95Y-108.719
X127.95Y-111.219
X127.95Y-113.719
X142.45Y-108.719
X142.45Y-113.719
X152.225Y-119.05
X152.225Y-121.55
X152.225Y-124.05
X152.3Y-98.362
X152.3Y-100.862
X152.3Y-103.362
X166.725Y-119.05
X166.725Y-124.05
X166.8Y-98.362
X166.8Y-103.362
X177.95Y-98.362
X177.95Y-100.862
X177.95Y-103.362
X178.05Y-119.05
X178.05Y-121.55
X178.05Y-124.05
X192.45Y-98.362
X192.45Y-103.362
X192.55Y-119.05
X192.55Y-124.05
T3
G00X134.9Y-105.619
M15
G01X136.0Y-105.619
M16
G05
G00X134.9Y-116.819
M15
G01X136.0Y-116.819
M16
G05
G00X159.175Y-115.95
M15
G01X160.275Y-115.95
M16
G05
G00X159.175Y-127.15
M15
G01X160.275Y-127.15
M16
G05
G00X159.25Y-95.262
M15
G01X160.35Y-95.262
M16
G05
G00X159.25Y-106.462
M15
G01X160.35Y-106.462
M16
G05
G00X184.9Y-95.262
M15
G01X186.0Y-95.262
M16
G05
G00X184.9Y-106.462
M15
G01X186.0Y-106.462
M16
G05
G00X185.0Y-115.95
M15
G01X186.1Y-115.95
M16
G05
G00X185.0Y-127.15
M15
G01X186.1Y-127.15
M16
G05
M30
