%TF.GenerationSoftware,KiCad,Pcbnew,9.0.6*%
%TF.CreationDate,2026-02-15T17:48:03-07:00*%
%TF.ProjectId,SoundRat,536f756e-6452-4617-942e-6b696361645f,rev?*%
%TF.SameCoordinates,Original*%
%TF.FileFunction,Copper,L2,Bot*%
%TF.FilePolarity,Positive*%
%FSLAX46Y46*%
G04 Gerber Fmt 4.6, Leading zero omitted, Abs format (unit mm)*
G04 Created by KiCad (PCBNEW 9.0.6) date 2026-02-15 17:48:03*
%MOMM*%
%LPD*%
G01*
G04 APERTURE LIST*
G04 Aperture macros list*
%AMRoundRect*
0 Rectangle with rounded corners*
0 $1 Rounding radius*
0 $2 $3 $4 $5 $6 $7 $8 $9 X,Y pos of 4 corners*
0 Add a 4 corners polygon primitive as box body*
4,1,4,$2,$3,$4,$5,$6,$7,$8,$9,$2,$3,0*
0 Add four circle primitives for the rounded corners*
1,1,$1+$1,$2,$3*
1,1,$1+$1,$4,$5*
1,1,$1+$1,$6,$7*
1,1,$1+$1,$8,$9*
0 Add four rect primitives between the rounded corners*
20,1,$1+$1,$2,$3,$4,$5,0*
20,1,$1+$1,$4,$5,$6,$7,0*
20,1,$1+$1,$6,$7,$8,$9,0*
20,1,$1+$1,$8,$9,$2,$3,0*%
G04 Aperture macros list end*
%TA.AperFunction,ComponentPad*%
%ADD10R,1.508000X1.508000*%
%TD*%
%TA.AperFunction,ComponentPad*%
%ADD11C,1.508000*%
%TD*%
%TA.AperFunction,ComponentPad*%
%ADD12RoundRect,0.250000X-0.550000X-0.550000X0.550000X-0.550000X0.550000X0.550000X-0.550000X0.550000X0*%
%TD*%
%TA.AperFunction,ComponentPad*%
%ADD13C,1.600000*%
%TD*%
%TA.AperFunction,ComponentPad*%
%ADD14O,4.100000X3.000000*%
%TD*%
%TA.AperFunction,ViaPad*%
%ADD15C,0.600000*%
%TD*%
%TA.AperFunction,Conductor*%
%ADD16C,0.200000*%
%TD*%
%TA.AperFunction,Conductor*%
%ADD17C,0.250000*%
%TD*%
G04 APERTURE END LIST*
D10*
%TO.P,U1,1,GP0*%
%TO.N,1A*%
X117750000Y-93925000D03*
D11*
%TO.P,U1,2,GP1*%
%TO.N,1B*%
X117750000Y-96465000D03*
%TO.P,U1,3,GP2*%
%TO.N,2A*%
X117750000Y-99005000D03*
%TO.P,U1,4,GP3*%
%TO.N,2B*%
X117750000Y-101545000D03*
%TO.P,U1,5,GP4*%
%TO.N,3A*%
X117750000Y-104085000D03*
%TO.P,U1,6,GP5*%
%TO.N,3B*%
X117750000Y-106625000D03*
%TO.P,U1,7,GP6*%
%TO.N,4A*%
X117750000Y-109165000D03*
%TO.P,U1,8,GP7*%
%TO.N,4B*%
X117750000Y-111705000D03*
%TO.P,U1,9,GP8*%
%TO.N,5A*%
X117750000Y-114245000D03*
%TO.P,U1,10,GP9*%
%TO.N,5B*%
X115210000Y-114245000D03*
%TO.P,U1,11,GP10*%
%TO.N,Button 1*%
X112670000Y-114245000D03*
%TO.P,U1,12,GP11*%
%TO.N,Button 2*%
X110130000Y-114245000D03*
%TO.P,U1,13,GP12*%
%TO.N,Button 3*%
X107590000Y-114245000D03*
%TO.P,U1,14,GP13*%
%TO.N,Button 4*%
X105050000Y-114245000D03*
%TO.P,U1,15,GP14*%
%TO.N,Button 5*%
X102510000Y-114245000D03*
%TO.P,U1,16,GP15*%
%TO.N,Net-(D1-DIN)*%
X102510000Y-111705000D03*
%TO.P,U1,17,GP26*%
%TO.N,Net-(D13-DIN)*%
X102510000Y-109165000D03*
%TO.P,U1,18,GP27*%
%TO.N,unconnected-(U1-GP27-Pad18)*%
X102510000Y-106625000D03*
%TO.P,U1,19,GP28*%
%TO.N,unconnected-(U1-GP28-Pad19)*%
X102510000Y-104085000D03*
%TO.P,U1,20,GP29*%
%TO.N,unconnected-(U1-GP29-Pad20)*%
X102510000Y-101545000D03*
%TO.P,U1,21,3V3*%
%TO.N,unconnected-(U1-3V3-Pad21)*%
X102510000Y-99005000D03*
%TO.P,U1,22,GND*%
%TO.N,GND*%
X102510000Y-96465000D03*
%TO.P,U1,23,5V*%
%TO.N,+5V*%
X102510000Y-93925000D03*
%TD*%
D12*
%TO.P,SW1,A,A*%
%TO.N,1A*%
X127950000Y-108718750D03*
D13*
%TO.P,SW1,B,B*%
%TO.N,1B*%
X127950000Y-113718750D03*
%TO.P,SW1,C,C*%
%TO.N,GND*%
X127950000Y-111218750D03*
%TO.P,SW1,S1,S1*%
%TO.N,Button 1*%
X142450000Y-108718750D03*
%TO.P,SW1,S2,S2*%
%TO.N,GND*%
X142450000Y-113718750D03*
D14*
%TO.P,SW1,SH*%
%TO.N,N/C*%
X135450000Y-105618750D03*
X135450000Y-116818750D03*
%TD*%
D12*
%TO.P,SW5,A,A*%
%TO.N,5A*%
X178050000Y-119050000D03*
D13*
%TO.P,SW5,B,B*%
%TO.N,5B*%
X178050000Y-124050000D03*
%TO.P,SW5,C,C*%
%TO.N,GND*%
X178050000Y-121550000D03*
%TO.P,SW5,S1,S1*%
%TO.N,Button 5*%
X192550000Y-119050000D03*
%TO.P,SW5,S2,S2*%
%TO.N,GND*%
X192550000Y-124050000D03*
D14*
%TO.P,SW5,SH*%
%TO.N,N/C*%
X185550000Y-115950000D03*
X185550000Y-127150000D03*
%TD*%
D12*
%TO.P,SW3,A,A*%
%TO.N,3A*%
X177950000Y-98362500D03*
D13*
%TO.P,SW3,B,B*%
%TO.N,3B*%
X177950000Y-103362500D03*
%TO.P,SW3,C,C*%
%TO.N,GND*%
X177950000Y-100862500D03*
%TO.P,SW3,S1,S1*%
%TO.N,Button 3*%
X192450000Y-98362500D03*
%TO.P,SW3,S2,S2*%
%TO.N,GND*%
X192450000Y-103362500D03*
D14*
%TO.P,SW3,SH*%
%TO.N,N/C*%
X185450000Y-95262500D03*
X185450000Y-106462500D03*
%TD*%
D12*
%TO.P,SW4,A,A*%
%TO.N,4A*%
X152225000Y-119050000D03*
D13*
%TO.P,SW4,B,B*%
%TO.N,4B*%
X152225000Y-124050000D03*
%TO.P,SW4,C,C*%
%TO.N,GND*%
X152225000Y-121550000D03*
%TO.P,SW4,S1,S1*%
%TO.N,Button 4*%
X166725000Y-119050000D03*
%TO.P,SW4,S2,S2*%
%TO.N,GND*%
X166725000Y-124050000D03*
D14*
%TO.P,SW4,SH*%
%TO.N,N/C*%
X159725000Y-115950000D03*
X159725000Y-127150000D03*
%TD*%
D12*
%TO.P,SW2,A,A*%
%TO.N,2A*%
X152300000Y-98362500D03*
D13*
%TO.P,SW2,B,B*%
%TO.N,2B*%
X152300000Y-103362500D03*
%TO.P,SW2,C,C*%
%TO.N,GND*%
X152300000Y-100862500D03*
%TO.P,SW2,S1,S1*%
%TO.N,Button 2*%
X166800000Y-98362500D03*
%TO.P,SW2,S2,S2*%
%TO.N,GND*%
X166800000Y-103362500D03*
D14*
%TO.P,SW2,SH*%
%TO.N,N/C*%
X159800000Y-95262500D03*
X159800000Y-106462500D03*
%TD*%
D15*
%TO.N,2B*%
X125525000Y-102725000D03*
X128950000Y-102850000D03*
%TO.N,3B*%
X114348235Y-106673235D03*
%TO.N,Button 3*%
X107575000Y-119750000D03*
%TO.N,Button 4*%
X142400000Y-122200000D03*
X162900000Y-119025000D03*
X149850000Y-122475000D03*
%TO.N,4A*%
X120550000Y-123550000D03*
%TO.N,4B*%
X119300000Y-123675000D03*
%TO.N,Net-(D1-DIN)*%
X144850000Y-120193750D03*
%TO.N,Net-(D1-DOUT)*%
X149700000Y-113731250D03*
X147125000Y-112906250D03*
%TO.N,+5V*%
X169581985Y-110881985D03*
X143850000Y-120825000D03*
X178800000Y-108550000D03*
X161675000Y-113350000D03*
X127775000Y-120850000D03*
X199675000Y-110175000D03*
%TO.N,Net-(D2-DOUT)*%
X149750000Y-108281250D03*
X147175000Y-107456250D03*
%TO.N,Net-(D4-DOUT)*%
X171425000Y-102675000D03*
X174000000Y-103500000D03*
%TO.N,Net-(D5-DOUT)*%
X171475000Y-97225000D03*
X174050000Y-98050000D03*
%TO.N,Net-(D6-DOUT)*%
X193525000Y-107475000D03*
X176475000Y-93475000D03*
%TO.N,Net-(D8-DOUT)*%
X199850000Y-98000000D03*
X197275000Y-97175000D03*
%TO.N,Net-(D11-DOUT)*%
X173700000Y-118606250D03*
X171125000Y-117781250D03*
%TO.N,Net-(D7-DOUT)*%
X199800000Y-103450000D03*
X197225000Y-102625000D03*
%TO.N,Net-(D10-DIN)*%
X179750000Y-124650000D03*
X174250000Y-126950000D03*
X185425000Y-100975000D03*
X171625000Y-128425000D03*
%TO.N,Net-(D10-DOUT)*%
X171175000Y-123306250D03*
X173750000Y-124131250D03*
%TO.N,Net-(D13-DIN)*%
X119250000Y-120021750D03*
%TO.N,Net-(D13-DOUT)*%
X122325000Y-115419750D03*
X125800000Y-116575000D03*
%TO.N,Net-(D14-DOUT)*%
X122325000Y-109843750D03*
X125825000Y-111050000D03*
%TO.N,Net-(D15-DOUT)*%
X122350000Y-104318750D03*
X125825000Y-105525000D03*
%TO.N,Net-(D12-DOUT)*%
X193300000Y-129000000D03*
X175975000Y-125949000D03*
%TO.N,Net-(D17-DOUT)*%
X199675000Y-124106250D03*
X197100000Y-123281250D03*
%TO.N,Net-(D18-DOUT)*%
X197150000Y-117831250D03*
X199725000Y-118656250D03*
%TO.N,5A*%
X118025000Y-125900000D03*
%TO.N,5B*%
X162545315Y-121845315D03*
X147650000Y-126725000D03*
X116325000Y-126750000D03*
%TD*%
D16*
%TO.N,Button 1*%
X142450000Y-108718750D02*
X136349000Y-114819750D01*
X118702246Y-114819750D02*
X118206996Y-115315000D01*
X113745000Y-115315000D02*
X112690000Y-114260000D01*
X118206996Y-115315000D02*
X113745000Y-115315000D01*
X136349000Y-114819750D02*
X118702246Y-114819750D01*
%TO.N,1B*%
X122905000Y-96480000D02*
X117770000Y-96480000D01*
X126849000Y-112617750D02*
X126849000Y-100424000D01*
X126849000Y-100424000D02*
X122905000Y-96480000D01*
X127950000Y-113718750D02*
X126849000Y-112617750D01*
%TO.N,1A*%
X127950000Y-99900000D02*
X121990000Y-93940000D01*
X127950000Y-108718750D02*
X127950000Y-99900000D01*
X121990000Y-93940000D02*
X117770000Y-93940000D01*
%TO.N,2A*%
X116325000Y-97575000D02*
X117770000Y-99020000D01*
X116715000Y-92885000D02*
X116325000Y-93275000D01*
X146822500Y-92885000D02*
X116715000Y-92885000D01*
X152300000Y-98362500D02*
X146822500Y-92885000D01*
X116325000Y-93275000D02*
X116325000Y-97575000D01*
%TO.N,2B*%
X152300000Y-103362500D02*
X129462500Y-103362500D01*
X124360000Y-101560000D02*
X117770000Y-101560000D01*
X129462500Y-103362500D02*
X128950000Y-102850000D01*
X125525000Y-102725000D02*
X124360000Y-101560000D01*
%TO.N,Button 2*%
X166800000Y-98362500D02*
X160518693Y-98362500D01*
X160518693Y-98362500D02*
X140261443Y-118619750D01*
X140261443Y-118619750D02*
X114509750Y-118619750D01*
X114509750Y-118619750D02*
X110150000Y-114260000D01*
%TO.N,3A*%
X145670943Y-119020750D02*
X113418754Y-119020750D01*
X177950000Y-98362500D02*
X174887557Y-98362500D01*
X113418754Y-119020750D02*
X109095000Y-114696996D01*
X150542693Y-114149000D02*
X145670943Y-119020750D01*
X109095000Y-112775000D02*
X117770000Y-104100000D01*
X159101057Y-114149000D02*
X150542693Y-114149000D01*
X109095000Y-114696996D02*
X109095000Y-112775000D01*
X174887557Y-98362500D02*
X159101057Y-114149000D01*
%TO.N,3B*%
X147507793Y-117751000D02*
X145837043Y-119421750D01*
X108694000Y-112327470D02*
X114348235Y-106673235D01*
X163561500Y-117751000D02*
X147507793Y-117751000D01*
X145837043Y-119421750D02*
X113252654Y-119421750D01*
X177950000Y-103362500D02*
X163561500Y-117751000D01*
X108694000Y-114863096D02*
X108694000Y-112327470D01*
X113252654Y-119421750D02*
X108694000Y-114863096D01*
%TO.N,Button 3*%
X113075999Y-125250999D02*
X107575000Y-119750000D01*
X192450000Y-98362500D02*
X184612500Y-98362500D01*
X157724001Y-125250999D02*
X113075999Y-125250999D01*
X184612500Y-98362500D02*
X157724001Y-125250999D01*
%TO.N,Button 4*%
X149850000Y-122475000D02*
X149850000Y-122367950D01*
X113010000Y-122200000D02*
X142400000Y-122200000D01*
X105070000Y-114260000D02*
X113010000Y-122200000D01*
X161774000Y-120151000D02*
X162900000Y-119025000D01*
X152066950Y-120151000D02*
X161774000Y-120151000D01*
X149850000Y-122367950D02*
X152066950Y-120151000D01*
%TO.N,4A*%
X147600000Y-123675000D02*
X122775000Y-123675000D01*
X122650000Y-123550000D02*
X120550000Y-123550000D01*
X122775000Y-123675000D02*
X122650000Y-123550000D01*
X152225000Y-119050000D02*
X147600000Y-123675000D01*
%TO.N,4B*%
X152225000Y-124050000D02*
X151425001Y-124849999D01*
X151425001Y-124849999D02*
X120474999Y-124849999D01*
X120474999Y-124849999D02*
X119300000Y-123675000D01*
%TO.N,Net-(D1-DIN)*%
X144850000Y-120193750D02*
X144850000Y-120850000D01*
X142800000Y-122900000D02*
X111825000Y-122900000D01*
X144850000Y-120850000D02*
X142800000Y-122900000D01*
X111825000Y-122900000D02*
X103800000Y-114875000D01*
X103800000Y-114875000D02*
X103800000Y-112990000D01*
X103800000Y-112990000D02*
X102530000Y-111720000D01*
%TO.N,Net-(D1-DOUT)*%
X147950000Y-113731250D02*
X149700000Y-113731250D01*
X147125000Y-112906250D02*
X147950000Y-113731250D01*
D17*
%TO.N,+5V*%
X161675000Y-113350000D02*
X167113970Y-113350000D01*
X178800000Y-108550000D02*
X180450000Y-110200000D01*
X127775000Y-120850000D02*
X143825000Y-120850000D01*
X199650000Y-110200000D02*
X199675000Y-110175000D01*
X167113970Y-113350000D02*
X169581985Y-110881985D01*
X143825000Y-120850000D02*
X143850000Y-120825000D01*
X180450000Y-110200000D02*
X199650000Y-110200000D01*
D16*
%TO.N,Net-(D2-DOUT)*%
X148000000Y-108281250D02*
X149750000Y-108281250D01*
X147175000Y-107456250D02*
X148000000Y-108281250D01*
%TO.N,Net-(D4-DOUT)*%
X172250000Y-103500000D02*
X174000000Y-103500000D01*
X171425000Y-102675000D02*
X172250000Y-103500000D01*
%TO.N,Net-(D5-DOUT)*%
X171475000Y-97225000D02*
X172300000Y-98050000D01*
X172300000Y-98050000D02*
X174050000Y-98050000D01*
%TO.N,Net-(D6-DOUT)*%
X193551000Y-107449000D02*
X193525000Y-107475000D01*
X180261500Y-97261500D02*
X192906050Y-97261500D01*
X192906050Y-97261500D02*
X193551000Y-97906450D01*
X176475000Y-93475000D02*
X180261500Y-97261500D01*
X193551000Y-97906450D02*
X193551000Y-107449000D01*
%TO.N,Net-(D8-DOUT)*%
X197275000Y-97175000D02*
X198100000Y-98000000D01*
X198100000Y-98000000D02*
X199850000Y-98000000D01*
%TO.N,Net-(D11-DOUT)*%
X171125000Y-117781250D02*
X171950000Y-118606250D01*
X171950000Y-118606250D02*
X173700000Y-118606250D01*
%TO.N,Net-(D7-DOUT)*%
X198050000Y-103450000D02*
X199800000Y-103450000D01*
X197225000Y-102625000D02*
X198050000Y-103450000D01*
%TO.N,Net-(D10-DIN)*%
X185425000Y-100975000D02*
X176461160Y-109938840D01*
X179750000Y-118863840D02*
X179750000Y-124650000D01*
X174250000Y-126950000D02*
X173100000Y-126950000D01*
X176461160Y-109938840D02*
X176461160Y-115575000D01*
X173100000Y-126950000D02*
X171625000Y-128425000D01*
X176461160Y-115575000D02*
X179750000Y-118863840D01*
%TO.N,Net-(D10-DOUT)*%
X172000000Y-124131250D02*
X173750000Y-124131250D01*
X171175000Y-123306250D02*
X172000000Y-124131250D01*
%TO.N,Net-(D13-DIN)*%
X106125000Y-114696996D02*
X106125000Y-112775000D01*
X106125000Y-112775000D02*
X102530000Y-109180000D01*
X119250000Y-120021750D02*
X111449754Y-120021750D01*
X111449754Y-120021750D02*
X106125000Y-114696996D01*
%TO.N,Net-(D13-DOUT)*%
X122894750Y-115419750D02*
X124050000Y-116575000D01*
X124050000Y-116575000D02*
X125800000Y-116575000D01*
X122325000Y-115419750D02*
X122894750Y-115419750D01*
%TO.N,Net-(D14-DOUT)*%
X122325000Y-109843750D02*
X122868750Y-109843750D01*
X122868750Y-109843750D02*
X124075000Y-111050000D01*
X124075000Y-111050000D02*
X125825000Y-111050000D01*
%TO.N,Net-(D15-DOUT)*%
X124075000Y-105525000D02*
X125825000Y-105525000D01*
X122350000Y-104318750D02*
X122868750Y-104318750D01*
X122868750Y-104318750D02*
X124075000Y-105525000D01*
%TO.N,Net-(D12-DOUT)*%
X175925000Y-125950000D02*
X178975000Y-129000000D01*
X175974000Y-125950000D02*
X175975000Y-125949000D01*
X178975000Y-129000000D02*
X193300000Y-129000000D01*
X175925000Y-125950000D02*
X175974000Y-125950000D01*
%TO.N,Net-(D17-DOUT)*%
X197100000Y-123281250D02*
X197925000Y-124106250D01*
X197925000Y-124106250D02*
X199675000Y-124106250D01*
%TO.N,Net-(D18-DOUT)*%
X197150000Y-117831250D02*
X197975000Y-118656250D01*
X197975000Y-118656250D02*
X199725000Y-118656250D01*
%TO.N,Button 5*%
X161020999Y-128951000D02*
X115926057Y-128951000D01*
X186251000Y-125349000D02*
X164622999Y-125349000D01*
X115926057Y-128951000D02*
X102530000Y-115554943D01*
X102530000Y-115554943D02*
X102530000Y-114260000D01*
X164622999Y-125349000D02*
X161020999Y-128951000D01*
X192550000Y-119050000D02*
X186251000Y-125349000D01*
%TO.N,5A*%
X163391100Y-120151000D02*
X157642100Y-125900000D01*
X157642100Y-125900000D02*
X118025000Y-125900000D01*
X178050000Y-119050000D02*
X176949000Y-120151000D01*
X176949000Y-120151000D02*
X163391100Y-120151000D01*
%TO.N,5B*%
X175845315Y-121845315D02*
X162545315Y-121845315D01*
X116350000Y-126725000D02*
X116325000Y-126750000D01*
X147650000Y-126725000D02*
X116350000Y-126725000D01*
X178050000Y-124050000D02*
X175845315Y-121845315D01*
%TD*%
M02*
