%TF.GenerationSoftware,KiCad,Pcbnew,9.0.6*%
%TF.CreationDate,2026-02-15T17:48:03-07:00*%
%TF.ProjectId,SoundRat,536f756e-6452-4617-942e-6b696361645f,rev?*%
%TF.SameCoordinates,Original*%
%TF.FileFunction,Soldermask,Top*%
%TF.FilePolarity,Negative*%
%FSLAX46Y46*%
G04 Gerber Fmt 4.6, Leading zero omitted, Abs format (unit mm)*
G04 Created by KiCad (PCBNEW 9.0.6) date 2026-02-15 17:48:03*
%MOMM*%
%LPD*%
G01*
G04 APERTURE LIST*
G04 Aperture macros list*
%AMRoundRect*
0 Rectangle with rounded corners*
0 $1 Rounding radius*
0 $2 $3 $4 $5 $6 $7 $8 $9 X,Y pos of 4 corners*
0 Add a 4 corners polygon primitive as box body*
4,1,4,$2,$3,$4,$5,$6,$7,$8,$9,$2,$3,0*
0 Add four circle primitives for the rounded corners*
1,1,$1+$1,$2,$3*
1,1,$1+$1,$4,$5*
1,1,$1+$1,$6,$7*
1,1,$1+$1,$8,$9*
0 Add four rect primitives between the rounded corners*
20,1,$1+$1,$2,$3,$4,$5,0*
20,1,$1+$1,$4,$5,$6,$7,0*
20,1,$1+$1,$6,$7,$8,$9,0*
20,1,$1+$1,$8,$9,$2,$3,0*%
G04 Aperture macros list end*
%ADD10RoundRect,0.102000X-0.754000X-0.754000X0.754000X-0.754000X0.754000X0.754000X-0.754000X0.754000X0*%
%ADD11C,1.712000*%
%ADD12R,1.500000X1.000000*%
%ADD13RoundRect,0.250000X-0.550000X-0.550000X0.550000X-0.550000X0.550000X0.550000X-0.550000X0.550000X0*%
%ADD14C,1.600000*%
%ADD15O,4.100000X3.000000*%
G04 APERTURE END LIST*
D10*
%TO.C,U1*%
X117750000Y-93925000D03*
D11*
X117750000Y-96465000D03*
X117750000Y-99005000D03*
X117750000Y-101545000D03*
X117750000Y-104085000D03*
X117750000Y-106625000D03*
X117750000Y-109165000D03*
X117750000Y-111705000D03*
X117750000Y-114245000D03*
X115210000Y-114245000D03*
X112670000Y-114245000D03*
X110130000Y-114245000D03*
X107590000Y-114245000D03*
X105050000Y-114245000D03*
X102510000Y-114245000D03*
X102510000Y-111705000D03*
X102510000Y-109165000D03*
X102510000Y-106625000D03*
X102510000Y-104085000D03*
X102510000Y-101545000D03*
X102510000Y-99005000D03*
X102510000Y-96465000D03*
X102510000Y-93925000D03*
%TD*%
D12*
%TO.C,D12*%
X168875000Y-114187500D03*
X168875000Y-117387500D03*
X173775000Y-117387500D03*
X173775000Y-114187500D03*
%TD*%
D13*
%TO.C,SW1*%
X127950000Y-108718750D03*
D14*
X127950000Y-113718750D03*
X127950000Y-111218750D03*
X142450000Y-108718750D03*
X142450000Y-113718750D03*
D15*
X135450000Y-105618750D03*
X135450000Y-116818750D03*
%TD*%
D12*
%TO.C,D19*%
X194800000Y-114200000D03*
X194800000Y-117400000D03*
X199700000Y-117400000D03*
X199700000Y-114200000D03*
%TD*%
%TO.C,D11*%
X168875000Y-119712500D03*
X168875000Y-122912500D03*
X173775000Y-122912500D03*
X173775000Y-119712500D03*
%TD*%
%TO.C,D15*%
X120900000Y-106618750D03*
X120900000Y-109818750D03*
X125800000Y-109818750D03*
X125800000Y-106618750D03*
%TD*%
%TO.C,D4*%
X169150000Y-104512500D03*
X169150000Y-107712500D03*
X174050000Y-107712500D03*
X174050000Y-104512500D03*
%TD*%
%TO.C,D2*%
X144850000Y-109362500D03*
X144850000Y-112562500D03*
X149750000Y-112562500D03*
X149750000Y-109362500D03*
%TD*%
%TO.C,D8*%
X194900000Y-99012500D03*
X194900000Y-102212500D03*
X199800000Y-102212500D03*
X199800000Y-99012500D03*
%TD*%
%TO.C,D16*%
X120900000Y-101118750D03*
X120900000Y-104318750D03*
X125800000Y-104318750D03*
X125800000Y-101118750D03*
%TD*%
D13*
%TO.C,SW5*%
X178050000Y-119050000D03*
D14*
X178050000Y-124050000D03*
X178050000Y-121550000D03*
X192550000Y-119050000D03*
X192550000Y-124050000D03*
D15*
X185550000Y-115950000D03*
X185550000Y-127150000D03*
%TD*%
D12*
%TO.C,D13*%
X120900000Y-117618750D03*
X120900000Y-120818750D03*
X125800000Y-120818750D03*
X125800000Y-117618750D03*
%TD*%
D13*
%TO.C,SW3*%
X177950000Y-98362500D03*
D14*
X177950000Y-103362500D03*
X177950000Y-100862500D03*
X192450000Y-98362500D03*
X192450000Y-103362500D03*
D15*
X185450000Y-95262500D03*
X185450000Y-106462500D03*
%TD*%
D13*
%TO.C,SW4*%
X152225000Y-119050000D03*
D14*
X152225000Y-124050000D03*
X152225000Y-121550000D03*
X166725000Y-119050000D03*
X166725000Y-124050000D03*
D15*
X159725000Y-115950000D03*
X159725000Y-127150000D03*
%TD*%
D12*
%TO.C,D18*%
X194800000Y-119700000D03*
X194800000Y-122900000D03*
X199700000Y-122900000D03*
X199700000Y-119700000D03*
%TD*%
%TO.C,D7*%
X194900000Y-104512500D03*
X194900000Y-107712500D03*
X199800000Y-107712500D03*
X199800000Y-104512500D03*
%TD*%
%TO.C,D6*%
X169150000Y-93512500D03*
X169150000Y-96712500D03*
X174050000Y-96712500D03*
X174050000Y-93512500D03*
%TD*%
D13*
%TO.C,SW2*%
X152300000Y-98362500D03*
D14*
X152300000Y-103362500D03*
X152300000Y-100862500D03*
X166800000Y-98362500D03*
X166800000Y-103362500D03*
D15*
X159800000Y-95262500D03*
X159800000Y-106462500D03*
%TD*%
D12*
%TO.C,D14*%
X120900000Y-112118750D03*
X120900000Y-115318750D03*
X125800000Y-115318750D03*
X125800000Y-112118750D03*
%TD*%
%TO.C,D10*%
X168875000Y-125212500D03*
X168875000Y-128412500D03*
X173775000Y-128412500D03*
X173775000Y-125212500D03*
%TD*%
%TO.C,D9*%
X194900000Y-93512500D03*
X194900000Y-96712500D03*
X199800000Y-96712500D03*
X199800000Y-93512500D03*
%TD*%
%TO.C,D5*%
X169150000Y-99012500D03*
X169150000Y-102212500D03*
X174050000Y-102212500D03*
X174050000Y-99012500D03*
%TD*%
%TO.C,D1*%
X144850000Y-114868750D03*
X144850000Y-118068750D03*
X149750000Y-118068750D03*
X149750000Y-114868750D03*
%TD*%
%TO.C,D3*%
X144850000Y-103868750D03*
X144850000Y-107068750D03*
X149750000Y-107068750D03*
X149750000Y-103868750D03*
%TD*%
%TO.C,D17*%
X194800000Y-125200000D03*
X194800000Y-128400000D03*
X199700000Y-128400000D03*
X199700000Y-125200000D03*
%TD*%
M02*
